<svg width="127" height="126" viewBox="0 0 127 126" fill="none" xmlns="http://www.w3.org/2000/svg">
  <defs>
    <linearGradient id="bg1" x1="63.5" y1="0" x2="63.5" y2="126" gradientUnits="userSpaceOnUse">
      <stop offset="0%" stop-color="#2563EB"/>
      <stop offset="50%" stop-color="#4F46E5"/>
      <stop offset="100%" stop-color="#9333EA"/>
    </linearGradient>
    <linearGradient id="skin1" x1="0" y1="0" x2="0" y2="1" gradientUnits="objectBoundingBox">
      <stop offset="0%" stop-color="#FDDCB5"/>
      <stop offset="100%" stop-color="#F6BF82"/>
    </linearGradient>
    <filter id="sh1"><feDropShadow dx="0" dy="5" stdDeviation="10" flood-color="#1E1B4B" flood-opacity="0.5"/></filter>
    <clipPath id="cc1"><circle cx="63.5" cy="63" r="61"/></clipPath>
  </defs>

  <!-- Background -->
  <circle cx="63.5" cy="63" r="63" fill="url(#bg1)" filter="url(#sh1)"/>
  <circle cx="63.5" cy="63" r="60" fill="none" stroke="white" stroke-width="0.6" opacity="0.15"/>
  <circle cx="63.5" cy="63" r="54" fill="none" stroke="white" stroke-width="0.4" stroke-dasharray="3 4" opacity="0.1"/>
  <polygon points="63.5,16 96,35 96,73 63.5,92 31,73 31,35" fill="white" stroke="white" stroke-width="0.5" opacity="0.1"/>

  <!-- Body / White coat -->
  <path d="M30 130 Q30 95 40 84 L53 77 L63.5 91 L74 77 L87 84 Q97 95 97 130Z" fill="white" opacity="0.95" clip-path="url(#cc1)"/>
  <path d="M53 77 L63.5 91 L74 77 L78 85 L63.5 100 L49 85Z" fill="#E0E7FF" opacity="0.9"/>
  <circle cx="63.5" cy="106" r="2" fill="#A5B4FC" opacity="0.6"/>
  <circle cx="63.5" cy="114" r="2" fill="#A5B4FC" opacity="0.45"/>
  <rect x="74" y="94" width="12" height="13" rx="3" fill="#C7D2FE" opacity="0.5"/>
  <line x1="80" y1="94" x2="80" y2="107" stroke="#818CF8" stroke-width="1" stroke-linecap="round"/>

  <!-- Neck -->
  <rect x="58" y="68" width="11" height="16" rx="5.5" fill="url(#skin1)"/>

  <!-- Head -->
  <ellipse cx="63.5" cy="51" rx="19" ry="20" fill="url(#skin1)"/>

  <!-- Male hair — short and natural -->
  <path d="M46 40 Q63.5 20 81 40 Q78 30 63.5 28 Q49 30 46 40Z" fill="#2C1810" opacity="0.9"/>
  <path d="M50 38 Q63.5 25 77 38" stroke="#1A0E06" stroke-width="1.2" stroke-linecap="round" opacity="0.6"/>

  <!-- Ears -->
  <ellipse cx="44.5" cy="51" rx="3" ry="4.5" fill="url(#skin1)"/>
  <ellipse cx="82.5" cy="51" rx="3" ry="4.5" fill="url(#skin1)"/>

  <!-- Eyes -->
  <ellipse cx="57" cy="49" rx="2.8" ry="3" fill="#1E1B4B"/>
  <ellipse cx="70" cy="49" rx="2.8" ry="3" fill="#1E1B4B"/>
  <circle cx="57.9" cy="48" r="0.9" fill="white" opacity="0.8"/>
  <circle cx="70.9" cy="48" r="0.9" fill="white" opacity="0.8"/>
  <path d="M54 46.5 Q57 44.5 60 46.5" stroke="#1E1B4B" stroke-width="1" fill="none" stroke-linecap="round" opacity="0.7"/>
  <path d="M67 46.5 Q70 44.5 73 46.5" stroke="#1E1B4B" stroke-width="1" fill="none" stroke-linecap="round" opacity="0.7"/>
  <path d="M53.5 44.5 Q57 42 60.5 44" stroke="#1A0E06" stroke-width="1.3" stroke-linecap="round" fill="none"/>
  <path d="M66.5 44.5 Q70 42 73.5 44" stroke="#1A0E06" stroke-width="1.3" stroke-linecap="round" fill="none"/>

  <!-- Neutral mouth -->
  <path d="M57.5 57 Q63.5 58 69.5 57" stroke="#8B5E3C" stroke-width="1.5" stroke-linecap="round" fill="none"/>
  <path d="M62 53 Q63.5 55 65 53" stroke="#8B5E3C" stroke-width="1" stroke-linecap="round" fill="none"/>

  <!-- Cross badge -->
  <circle cx="100" cy="22" r="14" fill="#4F46E5" opacity="0.95" filter="url(#sh1)"/>
  <circle cx="100" cy="22" r="13" fill="none" stroke="white" stroke-width="0.6" opacity="0.3"/>
  <rect x="96.5" y="15" width="7" height="14" rx="3" fill="white"/>
  <rect x="93" y="18.5" width="14" height="7" rx="3" fill="white"/>
</svg>