<svg xmlns="http://www.w3.org/2000/svg" viewBox="0 0 64 64" width="128" height="128">
  <!-- Face -->
  <circle cx="32" cy="32" r="30" fill="#FFCC4D"/>

  <!-- Eyes (pain expression) -->
  <path d="M20 28 L26 34 M26 28 L20 34" stroke="#5A3E00" stroke-width="3" stroke-linecap="round"/>
  <path d="M38 28 L44 34 M44 28 L38 34" stroke="#5A3E00" stroke-width="3" stroke-linecap="round"/>

  <!-- Eyebrows -->
  <path d="M18 24 Q23 20 28 24" stroke="#5A3E00" stroke-width="3" fill="none"/>
  <path d="M36 24 Q41 20 46 24" stroke="#5A3E00" stroke-width="3" fill="none"/>

  <!-- Mouth (pain curve) -->
  <path d="M22 46 Q32 40 42 46" stroke="#5A3E00" stroke-width="3" fill="none"/>

  <!-- Bandage base -->
  <rect x="8" y="14" width="48" height="14" rx="7" fill="#F2F2F2"/>

  <!-- Bandage center pad -->
  <rect x="22" y="16" width="20" height="10" rx="4" fill="#E0E0E0"/>

  <!-- Bandage dots -->
  <circle cx="14" cy="21" r="1.5" fill="#C4C4C4"/>
  <circle cx="18" cy="21" r="1.5" fill="#C4C4C4"/>
  <circle cx="46" cy="21" r="1.5" fill="#C4C4C4"/>
  <circle cx="50" cy="21" r="1.5" fill="#C4C4C4"/>
</svg>